STARTFONT 2.1
FONT -FontForge-Bitstream Vera Sans-Book-R-Normal-Sans--12-120-75-75-P-72-ISO8859-1
SIZE 12 75 75
FONTBOUNDINGBOX 17 15 -2 -3
COMMENT "Generated by fontforge, http://fontforge.sourceforge.net"
COMMENT "Copyright (c) 2003 by Bitstream, Inc. All Rights Reserved."
STARTPROPERTIES 40
FOUNDRY "FontForge"
FAMILY_NAME "Bitstream Vera Sans"
WEIGHT_NAME "Book"
SLANT "R"
SETWIDTH_NAME "Normal"
ADD_STYLE_NAME "Sans"
PIXEL_SIZE 12
POINT_SIZE 120
RESOLUTION_X 75
RESOLUTION_Y 75
SPACING "P"
AVERAGE_WIDTH 72
CHARSET_REGISTRY "ISO8859"
CHARSET_ENCODING "1"
FONTNAME_REGISTRY ""
CHARSET_COLLECTIONS "ISO8859-9 ISOLatin1Encoding"
FONT_NAME "BitstreamVeraSans-Roman"
FACE_NAME "Bitstream Vera Sans"
COPYRIGHT "Copyright (c) 2003 by Bitstream, Inc. All Rights Reserved."
FONT_VERSION "Release 1.10"
FONT_ASCENT 9
FONT_DESCENT 3
UNDERLINE_POSITION -2
UNDERLINE_THICKNESS 1
X_HEIGHT 6
CAP_HEIGHT 8
RAW_ASCENT 759
RAW_DESCENT 240
NORM_SPACE 4
RELATIVE_WEIGHT 40
RELATIVE_SETWIDTH 50
SUPERSCRIPT_X 0
SUPERSCRIPT_Y 3
SUPERSCRIPT_SIZE 7
SUBSCRIPT_X 0
SUBSCRIPT_Y -2
SUBSCRIPT_SIZE 7
FIGURE_WIDTH 8
AVG_LOWERCASE_WIDTH 70
AVG_UPPERCASE_WIDTH 78
ENDPROPERTIES
CHARS 268
STARTCHAR space
ENCODING 32
SWIDTH 317 0
DWIDTH 4 0
BBX 1 1 0 0
BITMAP
00
ENDCHAR
STARTCHAR exclam
ENCODING 33
SWIDTH 400 0
DWIDTH 5 0
BBX 1 9 2 0
BITMAP
80
80
80
80
80
80
00
80
80
ENDCHAR
STARTCHAR quotedbl
ENCODING 34
SWIDTH 459 0
DWIDTH 5 0
BBX 3 3 1 6
BITMAP
A0
A0
A0
ENDCHAR
STARTCHAR numbersign
ENCODING 35
SWIDTH 837 0
DWIDTH 10 0
BBX 8 8 1 0
BITMAP
12
14
7F
24
24
FE
28
48
ENDCHAR
STARTCHAR dollar
ENCODING 36
SWIDTH 636 0
DWIDTH 8 0
BBX 5 11 2 -2
BITMAP
20
70
A8
A0
E0
38
28
A8
70
20
20
ENDCHAR
STARTCHAR percent
ENCODING 37
SWIDTH 950 0
DWIDTH 11 0
BBX 10 9 0 0
BITMAP
6100
9200
9200
9400
6D80
0A40
1240
1240
2180
ENDCHAR
STARTCHAR ampersand
ENCODING 38
SWIDTH 779 0
DWIDTH 10 0
BBX 8 9 1 0
BITMAP
30
48
40
60
51
89
86
C4
7B
ENDCHAR
STARTCHAR quotesingle
ENCODING 39
SWIDTH 274 0
DWIDTH 3 0
BBX 1 3 1 6
BITMAP
80
80
80
ENDCHAR
STARTCHAR parenleft
ENCODING 40
SWIDTH 390 0
DWIDTH 5 0
BBX 3 11 1 -1
BITMAP
60
40
40
80
80
80
80
80
40
40
60
ENDCHAR
STARTCHAR parenright
ENCODING 41
SWIDTH 390 0
DWIDTH 5 0
BBX 3 11 1 -1
BITMAP
C0
40
40
20
20
20
20
20
40
40
C0
ENDCHAR
STARTCHAR asterisk
ENCODING 42
SWIDTH 500 0
DWIDTH 6 0
BBX 5 6 1 3
BITMAP
20
A8
70
70
A8
20
ENDCHAR
STARTCHAR plus
ENCODING 43
SWIDTH 837 0
DWIDTH 10 0
BBX 7 7 1 0
BITMAP
10
10
10
FE
10
10
10
ENDCHAR
STARTCHAR comma
ENCODING 44
SWIDTH 317 0
DWIDTH 4 0
BBX 1 3 1 -1
BITMAP
80
80
80
ENDCHAR
STARTCHAR hyphen
ENCODING 45
SWIDTH 360 0
DWIDTH 4 0
BBX 3 1 1 3
BITMAP
E0
ENDCHAR
STARTCHAR period
ENCODING 46
SWIDTH 317 0
DWIDTH 4 0
BBX 1 2 1 0
BITMAP
80
80
ENDCHAR
STARTCHAR slash
ENCODING 47
SWIDTH 336 0
DWIDTH 4 0
BBX 4 10 0 -1
BITMAP
10
10
20
20
20
40
40
40
80
80
ENDCHAR
STARTCHAR zero
ENCODING 48
SWIDTH 636 0
DWIDTH 8 0
BBX 6 9 1 0
BITMAP
78
48
84
84
84
84
84
48
78
ENDCHAR
STARTCHAR one
ENCODING 49
SWIDTH 636 0
DWIDTH 8 0
BBX 5 9 1 0
BITMAP
E0
20
20
20
20
20
20
20
F8
ENDCHAR
STARTCHAR two
ENCODING 50
SWIDTH 636 0
DWIDTH 8 0
BBX 6 9 1 0
BITMAP
78
8C
04
04
08
10
20
40
FC
ENDCHAR
STARTCHAR three
ENCODING 51
SWIDTH 636 0
DWIDTH 8 0
BBX 6 9 1 0
BITMAP
78
84
04
04
38
04
04
84
78
ENDCHAR
STARTCHAR four
ENCODING 52
SWIDTH 636 0
DWIDTH 8 0
BBX 6 9 1 0
BITMAP
18
18
28
48
48
88
FC
08
08
ENDCHAR
STARTCHAR five
ENCODING 53
SWIDTH 636 0
DWIDTH 8 0
BBX 6 9 1 0
BITMAP
F8
80
80
F8
0C
04
04
8C
78
ENDCHAR
STARTCHAR six
ENCODING 54
SWIDTH 636 0
DWIDTH 8 0
BBX 6 9 1 0
BITMAP
38
44
80
B8
CC
84
84
4C
78
ENDCHAR
STARTCHAR seven
ENCODING 55
SWIDTH 636 0
DWIDTH 8 0
BBX 6 9 1 0
BITMAP
FC
04
08
08
10
10
20
20
40
ENDCHAR
STARTCHAR eight
ENCODING 56
SWIDTH 636 0
DWIDTH 8 0
BBX 6 9 1 0
BITMAP
78
84
84
84
78
84
84
84
78
ENDCHAR
STARTCHAR nine
ENCODING 57
SWIDTH 636 0
DWIDTH 8 0
BBX 6 9 1 0
BITMAP
78
C8
84
84
CC
74
04
88
70
ENDCHAR
STARTCHAR colon
ENCODING 58
SWIDTH 336 0
DWIDTH 4 0
BBX 1 6 1 0
BITMAP
80
80
00
00
80
80
ENDCHAR
STARTCHAR semicolon
ENCODING 59
SWIDTH 336 0
DWIDTH 4 0
BBX 1 7 1 -1
BITMAP
80
80
00
00
80
80
80
ENDCHAR
STARTCHAR less
ENCODING 60
SWIDTH 837 0
DWIDTH 10 0
BBX 8 6 1 1
BITMAP
03
1E
E0
E0
1E
03
ENDCHAR
STARTCHAR equal
ENCODING 61
SWIDTH 837 0
DWIDTH 10 0
BBX 8 3 1 2
BITMAP
FF
00
FF
ENDCHAR
STARTCHAR greater
ENCODING 62
SWIDTH 837 0
DWIDTH 10 0
BBX 8 6 1 1
BITMAP
C0
78
07
07
78
C0
ENDCHAR
STARTCHAR question
ENCODING 63
SWIDTH 530 0
DWIDTH 6 0
BBX 5 9 0 0
BITMAP
70
88
08
10
20
20
00
20
20
ENDCHAR
STARTCHAR at
ENCODING 64
SWIDTH 1000 0
DWIDTH 13 0
BBX 11 11 1 -2
BITMAP
1F00
20C0
4040
8F20
9120
9120
9140
8F80
4000
2080
1F00
ENDCHAR
STARTCHAR A
ENCODING 65
SWIDTH 684 0
DWIDTH 8 0
BBX 8 9 0 0
BITMAP
18
18
24
24
24
42
7E
42
81
ENDCHAR
STARTCHAR B
ENCODING 66
SWIDTH 686 0
DWIDTH 8 0
BBX 6 9 1 0
BITMAP
F8
84
84
84
F8
84
84
84
F8
ENDCHAR
STARTCHAR C
ENCODING 67
SWIDTH 698 0
DWIDTH 8 0
BBX 6 9 1 0
BITMAP
38
44
80
80
80
80
80
44
38
ENDCHAR
STARTCHAR D
ENCODING 68
SWIDTH 770 0
DWIDTH 9 0
BBX 7 9 1 0
BITMAP
F8
84
82
82
82
82
82
84
F8
ENDCHAR
STARTCHAR E
ENCODING 69
SWIDTH 631 0
DWIDTH 8 0
BBX 6 9 1 0
BITMAP
FC
80
80
80
FC
80
80
80
FC
ENDCHAR
STARTCHAR F
ENCODING 70
SWIDTH 575 0
DWIDTH 7 0
BBX 5 9 1 0
BITMAP
F8
80
80
80
F8
80
80
80
80
ENDCHAR
STARTCHAR G
ENCODING 71
SWIDTH 774 0
DWIDTH 9 0
BBX 7 9 1 0
BITMAP
3C
42
80
80
8E
82
82
42
3C
ENDCHAR
STARTCHAR H
ENCODING 72
SWIDTH 751 0
DWIDTH 9 0
BBX 7 9 1 0
BITMAP
82
82
82
82
FE
82
82
82
82
ENDCHAR
STARTCHAR I
ENCODING 73
SWIDTH 294 0
DWIDTH 3 0
BBX 1 9 1 0
BITMAP
80
80
80
80
80
80
80
80
80
ENDCHAR
STARTCHAR J
ENCODING 74
SWIDTH 294 0
DWIDTH 3 0
BBX 3 11 -1 -2
BITMAP
20
20
20
20
20
20
20
20
20
20
C0
ENDCHAR
STARTCHAR K
ENCODING 75
SWIDTH 655 0
DWIDTH 7 0
BBX 6 9 1 0
BITMAP
84
88
90
A0
C0
A0
90
88
84
ENDCHAR
STARTCHAR L
ENCODING 76
SWIDTH 557 0
DWIDTH 6 0
BBX 5 9 1 0
BITMAP
80
80
80
80
80
80
80
80
F8
ENDCHAR
STARTCHAR M
ENCODING 77
SWIDTH 862 0
DWIDTH 10 0
BBX 8 9 1 0
BITMAP
81
C3
C3
A5
A5
99
99
81
81
ENDCHAR
STARTCHAR N
ENCODING 78
SWIDTH 748 0
DWIDTH 9 0
BBX 7 9 1 0
BITMAP
C2
C2
A2
A2
92
8A
8A
86
86
ENDCHAR
STARTCHAR O
ENCODING 79
SWIDTH 787 0
DWIDTH 9 0
BBX 7 9 1 0
BITMAP
38
44
82
82
82
82
82
44
38
ENDCHAR
STARTCHAR P
ENCODING 80
SWIDTH 603 0
DWIDTH 8 0
BBX 6 9 1 0
BITMAP
F8
84
84
84
F8
80
80
80
80
ENDCHAR
STARTCHAR Q
ENCODING 81
SWIDTH 787 0
DWIDTH 9 0
BBX 7 11 1 -2
BITMAP
38
44
82
82
82
82
82
44
38
08
04
ENDCHAR
STARTCHAR R
ENCODING 82
SWIDTH 694 0
DWIDTH 8 0
BBX 7 9 1 0
BITMAP
F8
84
84
84
F8
88
84
84
82
ENDCHAR
STARTCHAR S
ENCODING 83
SWIDTH 634 0
DWIDTH 8 0
BBX 6 9 1 0
BITMAP
78
84
80
80
78
04
04
84
78
ENDCHAR
STARTCHAR T
ENCODING 84
SWIDTH 610 0
DWIDTH 7 0
BBX 7 9 0 0
BITMAP
FE
10
10
10
10
10
10
10
10
ENDCHAR
STARTCHAR U
ENCODING 85
SWIDTH 731 0
DWIDTH 9 0
BBX 7 9 1 0
BITMAP
82
82
82
82
82
82
82
C6
7C
ENDCHAR
STARTCHAR V
ENCODING 86
SWIDTH 684 0
DWIDTH 8 0
BBX 8 9 0 0
BITMAP
81
81
42
42
42
24
24
18
18
ENDCHAR
STARTCHAR W
ENCODING 87
SWIDTH 988 0
DWIDTH 11 0
BBX 11 9 0 0
BITMAP
8420
4440
4440
4A40
2A80
2A80
2A80
1100
1100
ENDCHAR
STARTCHAR X
ENCODING 88
SWIDTH 685 0
DWIDTH 9 0
BBX 7 9 1 0
BITMAP
82
44
44
28
10
28
44
44
82
ENDCHAR
STARTCHAR Y
ENCODING 89
SWIDTH 610 0
DWIDTH 7 0
BBX 7 9 0 0
BITMAP
82
44
44
28
28
10
10
10
10
ENDCHAR
STARTCHAR Z
ENCODING 90
SWIDTH 685 0
DWIDTH 9 0
BBX 7 9 1 0
BITMAP
FE
02
04
08
10
20
40
80
FE
ENDCHAR
STARTCHAR bracketleft
ENCODING 91
SWIDTH 390 0
DWIDTH 5 0
BBX 2 11 2 -2
BITMAP
C0
80
80
80
80
80
80
80
80
80
C0
ENDCHAR
STARTCHAR backslash
ENCODING 92
SWIDTH 336 0
DWIDTH 4 0
BBX 4 10 0 -1
BITMAP
80
80
40
40
40
20
20
20
10
10
ENDCHAR
STARTCHAR bracketright
ENCODING 93
SWIDTH 390 0
DWIDTH 5 0
BBX 2 11 1 -2
BITMAP
C0
40
40
40
40
40
40
40
40
40
C0
ENDCHAR
STARTCHAR asciicircum
ENCODING 94
SWIDTH 837 0
DWIDTH 10 0
BBX 6 3 2 6
BITMAP
30
48
84
ENDCHAR
STARTCHAR underscore
ENCODING 95
SWIDTH 500 0
DWIDTH 6 0
BBX 6 1 0 -3
BITMAP
FC
ENDCHAR
STARTCHAR grave
ENCODING 96
SWIDTH 500 0
DWIDTH 6 0
BBX 2 2 2 8
BITMAP
80
40
ENDCHAR
STARTCHAR a
ENCODING 97
SWIDTH 612 0
DWIDTH 8 0
BBX 6 7 1 0
BITMAP
78
84
04
7C
84
8C
74
ENDCHAR
STARTCHAR b
ENCODING 98
SWIDTH 634 0
DWIDTH 8 0
BBX 6 10 1 0
BITMAP
80
80
80
F8
CC
84
84
84
CC
F8
ENDCHAR
STARTCHAR c
ENCODING 99
SWIDTH 549 0
DWIDTH 7 0
BBX 5 7 1 0
BITMAP
70
C8
80
80
80
C8
70
ENDCHAR
STARTCHAR d
ENCODING 100
SWIDTH 634 0
DWIDTH 8 0
BBX 6 10 1 0
BITMAP
04
04
04
7C
CC
84
84
84
CC
7C
ENDCHAR
STARTCHAR e
ENCODING 101
SWIDTH 615 0
DWIDTH 8 0
BBX 6 7 1 0
BITMAP
78
CC
84
FC
80
C4
78
ENDCHAR
STARTCHAR f
ENCODING 102
SWIDTH 352 0
DWIDTH 4 0
BBX 4 10 0 0
BITMAP
30
40
40
F0
40
40
40
40
40
40
ENDCHAR
STARTCHAR g
ENCODING 103
SWIDTH 634 0
DWIDTH 8 0
BBX 6 10 1 -3
BITMAP
7C
CC
84
84
84
CC
7C
04
4C
38
ENDCHAR
STARTCHAR h
ENCODING 104
SWIDTH 633 0
DWIDTH 8 0
BBX 6 10 1 0
BITMAP
80
80
80
B8
C4
84
84
84
84
84
ENDCHAR
STARTCHAR i
ENCODING 105
SWIDTH 277 0
DWIDTH 3 0
BBX 1 9 1 0
BITMAP
80
00
80
80
80
80
80
80
80
ENDCHAR
STARTCHAR j
ENCODING 106
SWIDTH 277 0
DWIDTH 3 0
BBX 2 12 0 -3
BITMAP
40
00
40
40
40
40
40
40
40
40
40
C0
ENDCHAR
STARTCHAR k
ENCODING 107
SWIDTH 579 0
DWIDTH 7 0
BBX 5 10 1 0
BITMAP
80
80
80
88
90
A0
C0
A0
90
88
ENDCHAR
STARTCHAR l
ENCODING 108
SWIDTH 277 0
DWIDTH 3 0
BBX 1 10 1 0
BITMAP
80
80
80
80
80
80
80
80
80
80
ENDCHAR
STARTCHAR m
ENCODING 109
SWIDTH 974 0
DWIDTH 11 0
BBX 9 7 1 0
BITMAP
F700
8880
8880
8880
8880
8880
8880
ENDCHAR
STARTCHAR n
ENCODING 110
SWIDTH 633 0
DWIDTH 8 0
BBX 6 7 1 0
BITMAP
B8
C4
84
84
84
84
84
ENDCHAR
STARTCHAR o
ENCODING 111
SWIDTH 611 0
DWIDTH 8 0
BBX 6 7 1 0
BITMAP
78
CC
84
84
84
CC
78
ENDCHAR
STARTCHAR p
ENCODING 112
SWIDTH 634 0
DWIDTH 8 0
BBX 6 10 1 -3
BITMAP
F8
CC
84
84
84
CC
F8
80
80
80
ENDCHAR
STARTCHAR q
ENCODING 113
SWIDTH 634 0
DWIDTH 8 0
BBX 6 10 1 -3
BITMAP
7C
CC
84
84
84
CC
7C
04
04
04
ENDCHAR
STARTCHAR r
ENCODING 114
SWIDTH 411 0
DWIDTH 5 0
BBX 4 7 1 0
BITMAP
B0
C0
80
80
80
80
80
ENDCHAR
STARTCHAR s
ENCODING 115
SWIDTH 520 0
DWIDTH 7 0
BBX 5 7 1 0
BITMAP
70
88
80
70
08
88
70
ENDCHAR
STARTCHAR t
ENCODING 116
SWIDTH 392 0
DWIDTH 5 0
BBX 4 9 0 0
BITMAP
40
40
F0
40
40
40
40
40
70
ENDCHAR
STARTCHAR u
ENCODING 117
SWIDTH 633 0
DWIDTH 8 0
BBX 6 7 1 0
BITMAP
84
84
84
84
84
8C
74
ENDCHAR
STARTCHAR v
ENCODING 118
SWIDTH 591 0
DWIDTH 6 0
BBX 6 7 0 0
BITMAP
84
84
48
48
48
30
30
ENDCHAR
STARTCHAR w
ENCODING 119
SWIDTH 817 0
DWIDTH 9 0
BBX 9 7 0 0
BITMAP
8880
8880
5500
5500
5500
2200
2200
ENDCHAR
STARTCHAR x
ENCODING 120
SWIDTH 591 0
DWIDTH 6 0
BBX 6 7 0 0
BITMAP
84
48
48
30
48
48
84
ENDCHAR
STARTCHAR y
ENCODING 121
SWIDTH 591 0
DWIDTH 6 0
BBX 6 10 0 -3
BITMAP
84
84
48
48
28
30
10
10
20
C0
ENDCHAR
STARTCHAR z
ENCODING 122
SWIDTH 524 0
DWIDTH 5 0
BBX 5 7 0 0
BITMAP
F8
08
10
20
40
80
F8
ENDCHAR
STARTCHAR braceleft
ENCODING 123
SWIDTH 636 0
DWIDTH 8 0
BBX 5 11 2 -2
BITMAP
38
20
20
20
20
C0
20
20
20
20
38
ENDCHAR
STARTCHAR bar
ENCODING 124
SWIDTH 336 0
DWIDTH 4 0
BBX 1 12 2 -3
BITMAP
80
80
80
80
80
80
80
80
80
80
80
80
ENDCHAR
STARTCHAR braceright
ENCODING 125
SWIDTH 636 0
DWIDTH 8 0
BBX 5 11 1 -2
BITMAP
E0
20
20
20
20
18
20
20
20
20
E0
ENDCHAR
STARTCHAR asciitilde
ENCODING 126
SWIDTH 837 0
DWIDTH 10 0
BBX 8 2 1 3
BITMAP
71
8E
ENDCHAR
STARTCHAR nonbreakingspace
ENCODING 160
SWIDTH 636 0
DWIDTH 8 0
BBX 1 1 0 0
BITMAP
00
ENDCHAR
STARTCHAR exclamdown
ENCODING 161
SWIDTH 400 0
DWIDTH 5 0
BBX 1 9 2 0
BITMAP
80
80
00
80
80
80
80
80
80
ENDCHAR
STARTCHAR cent
ENCODING 162
SWIDTH 636 0
DWIDTH 8 0
BBX 5 11 1 -2
BITMAP
20
20
70
A8
A0
A0
A0
A8
70
20
20
ENDCHAR
STARTCHAR sterling
ENCODING 163
SWIDTH 636 0
DWIDTH 8 0
BBX 5 9 2 0
BITMAP
30
48
40
40
F0
40
40
40
F8
ENDCHAR
STARTCHAR currency
ENCODING 164
SWIDTH 636 0
DWIDTH 8 0
BBX 7 7 0 0
BITMAP
82
7C
44
44
44
7C
82
ENDCHAR
STARTCHAR yen
ENCODING 165
SWIDTH 636 0
DWIDTH 8 0
BBX 7 9 1 0
BITMAP
82
44
28
6C
10
7C
10
10
10
ENDCHAR
STARTCHAR brokenbar
ENCODING 166
SWIDTH 336 0
DWIDTH 4 0
BBX 1 10 2 -2
BITMAP
80
80
80
80
00
00
80
80
80
80
ENDCHAR
STARTCHAR section
ENCODING 167
SWIDTH 500 0
DWIDTH 6 0
BBX 5 10 0 -1
BITMAP
78
80
C0
B0
98
C8
68
18
08
F0
ENDCHAR
STARTCHAR dieresis
ENCODING 168
SWIDTH 500 0
DWIDTH 6 0
BBX 3 1 2 8
BITMAP
A0
ENDCHAR
STARTCHAR copyright
ENCODING 169
SWIDTH 1000 0
DWIDTH 12 0
BBX 9 9 2 0
BITMAP
3E00
6300
DF80
A080
A080
A080
DF80
6300
3E00
ENDCHAR
STARTCHAR ordfeminine
ENCODING 170
SWIDTH 471 0
DWIDTH 6 0
BBX 5 7 1 2
BITMAP
70
08
78
88
F8
00
F8
ENDCHAR
STARTCHAR guillemotleft
ENCODING 171
SWIDTH 611 0
DWIDTH 7 0
BBX 6 5 1 1
BITMAP
24
6C
90
6C
24
ENDCHAR
STARTCHAR logicalnot
ENCODING 172
SWIDTH 837 0
DWIDTH 10 0
BBX 8 3 1 2
BITMAP
FF
01
01
ENDCHAR
STARTCHAR sfthyphen
ENCODING 173
SWIDTH 360 0
DWIDTH 4 0
BBX 3 1 1 3
BITMAP
E0
ENDCHAR
STARTCHAR registered
ENCODING 174
SWIDTH 1000 0
DWIDTH 12 0
BBX 9 9 2 0
BITMAP
3E00
6300
FF80
A280
BC80
A480
E380
6300
3E00
ENDCHAR
STARTCHAR macron
ENCODING 175
SWIDTH 500 0
DWIDTH 6 0
BBX 4 1 1 8
BITMAP
F0
ENDCHAR
STARTCHAR degree
ENCODING 176
SWIDTH 500 0
DWIDTH 6 0
BBX 4 4 1 5
BITMAP
60
90
90
60
ENDCHAR
STARTCHAR plusminus
ENCODING 177
SWIDTH 837 0
DWIDTH 10 0
BBX 7 7 2 0
BITMAP
10
10
FE
10
10
00
FE
ENDCHAR
STARTCHAR twosuperior
ENCODING 178
SWIDTH 400 0
DWIDTH 5 0
BBX 3 5 1 4
BITMAP
E0
20
20
40
E0
ENDCHAR
STARTCHAR threesuperior
ENCODING 179
SWIDTH 400 0
DWIDTH 5 0
BBX 4 5 1 4
BITMAP
F0
10
60
10
F0
ENDCHAR
STARTCHAR acute
ENCODING 180
SWIDTH 500 0
DWIDTH 6 0
BBX 2 2 2 8
BITMAP
40
80
ENDCHAR
STARTCHAR mu
ENCODING 181
SWIDTH 636 0
DWIDTH 8 0
BBX 7 10 1 -3
BITMAP
84
84
84
84
84
84
FE
80
80
80
ENDCHAR
STARTCHAR paragraph
ENCODING 182
SWIDTH 636 0
DWIDTH 8 0
BBX 5 10 1 -1
BITMAP
78
E8
E8
E8
68
28
28
28
28
28
ENDCHAR
STARTCHAR periodcentered
ENCODING 183
SWIDTH 317 0
DWIDTH 4 0
BBX 1 2 1 3
BITMAP
80
80
ENDCHAR
STARTCHAR cedilla
ENCODING 184
SWIDTH 500 0
DWIDTH 6 0
BBX 2 2 2 -2
BITMAP
40
C0
ENDCHAR
STARTCHAR onesuperior
ENCODING 185
SWIDTH 400 0
DWIDTH 5 0
BBX 3 5 1 4
BITMAP
C0
40
40
40
E0
ENDCHAR
STARTCHAR ordmasculine
ENCODING 186
SWIDTH 471 0
DWIDTH 6 0
BBX 5 7 1 2
BITMAP
70
88
88
88
70
00
F8
ENDCHAR
STARTCHAR guillemotright
ENCODING 187
SWIDTH 611 0
DWIDTH 7 0
BBX 6 5 1 1
BITMAP
90
D8
24
D8
90
ENDCHAR
STARTCHAR onequarter
ENCODING 188
SWIDTH 969 0
DWIDTH 12 0
BBX 11 9 1 0
BITMAP
C100
4200
4200
4400
EC40
08C0
1140
11E0
2040
ENDCHAR
STARTCHAR onehalf
ENCODING 189
SWIDTH 969 0
DWIDTH 12 0
BBX 10 9 1 0
BITMAP
C100
4200
4200
4400
EDC0
0840
1040
1080
21C0
ENDCHAR
STARTCHAR threequarters
ENCODING 190
SWIDTH 969 0
DWIDTH 12 0
BBX 11 9 1 0
BITMAP
F100
1200
6200
1400
FC40
08C0
1140
11E0
2040
ENDCHAR
STARTCHAR questiondown
ENCODING 191
SWIDTH 530 0
DWIDTH 6 0
BBX 5 9 1 0
BITMAP
20
20
00
20
20
40
80
88
70
ENDCHAR
STARTCHAR Agrave
ENCODING 192
SWIDTH 684 0
DWIDTH 8 0
BBX 8 12 0 0
BITMAP
10
08
00
18
18
24
24
24
42
7E
42
81
ENDCHAR
STARTCHAR Aacute
ENCODING 193
SWIDTH 684 0
DWIDTH 8 0
BBX 8 12 0 0
BITMAP
08
10
00
18
18
24
24
24
42
7E
42
81
ENDCHAR
STARTCHAR Acircumflex
ENCODING 194
SWIDTH 684 0
DWIDTH 8 0
BBX 8 12 0 0
BITMAP
18
24
00
18
18
24
24
24
42
7E
42
81
ENDCHAR
STARTCHAR Atilde
ENCODING 195
SWIDTH 684 0
DWIDTH 8 0
BBX 8 12 0 0
BITMAP
34
2C
00
18
18
24
24
24
42
7E
42
81
ENDCHAR
STARTCHAR Adieresis
ENCODING 196
SWIDTH 684 0
DWIDTH 8 0
BBX 8 11 0 0
BITMAP
28
00
18
18
24
24
24
42
7E
42
81
ENDCHAR
STARTCHAR Aring
ENCODING 197
SWIDTH 684 0
DWIDTH 8 0
BBX 8 12 0 0
BITMAP
18
24
24
18
18
24
24
24
42
7E
42
81
ENDCHAR
STARTCHAR AE
ENCODING 198
SWIDTH 974 0
DWIDTH 12 0
BBX 11 9 0 0
BITMAP
1FE0
1400
1400
2400
27E0
4400
7C00
4400
87E0
ENDCHAR
STARTCHAR Ccedilla
ENCODING 199
SWIDTH 698 0
DWIDTH 8 0
BBX 6 11 1 -2
BITMAP
38
44
80
80
80
80
80
44
38
08
18
ENDCHAR
STARTCHAR Egrave
ENCODING 200
SWIDTH 631 0
DWIDTH 8 0
BBX 6 12 1 0
BITMAP
20
10
00
FC
80
80
80
FC
80
80
80
FC
ENDCHAR
STARTCHAR Eacute
ENCODING 201
SWIDTH 631 0
DWIDTH 8 0
BBX 6 12 1 0
BITMAP
10
20
00
FC
80
80
80
FC
80
80
80
FC
ENDCHAR
STARTCHAR Ecircumflex
ENCODING 202
SWIDTH 631 0
DWIDTH 8 0
BBX 6 12 1 0
BITMAP
30
48
00
FC
80
80
80
FC
80
80
80
FC
ENDCHAR
STARTCHAR Edieresis
ENCODING 203
SWIDTH 631 0
DWIDTH 8 0
BBX 6 11 1 0
BITMAP
50
00
FC
80
80
80
FC
80
80
80
FC
ENDCHAR
STARTCHAR Igrave
ENCODING 204
SWIDTH 294 0
DWIDTH 3 0
BBX 2 12 1 0
BITMAP
80
40
00
80
80
80
80
80
80
80
80
80
ENDCHAR
STARTCHAR Iacute
ENCODING 205
SWIDTH 294 0
DWIDTH 3 0
BBX 2 12 1 0
BITMAP
40
80
00
80
80
80
80
80
80
80
80
80
ENDCHAR
STARTCHAR Icircumflex
ENCODING 206
SWIDTH 294 0
DWIDTH 3 0
BBX 4 12 0 0
BITMAP
60
90
00
40
40
40
40
40
40
40
40
40
ENDCHAR
STARTCHAR Idieresis
ENCODING 207
SWIDTH 294 0
DWIDTH 3 0
BBX 3 11 0 0
BITMAP
A0
00
40
40
40
40
40
40
40
40
40
ENDCHAR
STARTCHAR Eth
ENCODING 208
SWIDTH 774 0
DWIDTH 9 0
BBX 8 9 0 0
BITMAP
7C
42
41
41
F1
41
41
42
7C
ENDCHAR
STARTCHAR Ntilde
ENCODING 209
SWIDTH 748 0
DWIDTH 9 0
BBX 7 12 1 0
BITMAP
68
58
00
C2
C2
A2
A2
92
8A
8A
86
86
ENDCHAR
STARTCHAR Ograve
ENCODING 210
SWIDTH 787 0
DWIDTH 9 0
BBX 7 12 1 0
BITMAP
10
08
00
38
44
82
82
82
82
82
44
38
ENDCHAR
STARTCHAR Oacute
ENCODING 211
SWIDTH 787 0
DWIDTH 9 0
BBX 7 12 1 0
BITMAP
08
10
00
38
44
82
82
82
82
82
44
38
ENDCHAR
STARTCHAR Ocircumflex
ENCODING 212
SWIDTH 787 0
DWIDTH 9 0
BBX 7 12 1 0
BITMAP
18
24
00
38
44
82
82
82
82
82
44
38
ENDCHAR
STARTCHAR Otilde
ENCODING 213
SWIDTH 787 0
DWIDTH 9 0
BBX 7 12 1 0
BITMAP
34
2C
00
38
44
82
82
82
82
82
44
38
ENDCHAR
STARTCHAR Odieresis
ENCODING 214
SWIDTH 787 0
DWIDTH 9 0
BBX 7 11 1 0
BITMAP
28
00
38
44
82
82
82
82
82
44
38
ENDCHAR
STARTCHAR multiply
ENCODING 215
SWIDTH 837 0
DWIDTH 10 0
BBX 7 7 2 0
BITMAP
82
44
28
10
28
44
82
ENDCHAR
STARTCHAR Oslash
ENCODING 216
SWIDTH 787 0
DWIDTH 9 0
BBX 7 9 1 0
BITMAP
3A
44
86
8A
92
A2
C2
44
B8
ENDCHAR
STARTCHAR Ugrave
ENCODING 217
SWIDTH 731 0
DWIDTH 9 0
BBX 7 12 1 0
BITMAP
20
10
00
82
82
82
82
82
82
82
C6
7C
ENDCHAR
STARTCHAR Uacute
ENCODING 218
SWIDTH 731 0
DWIDTH 9 0
BBX 7 12 1 0
BITMAP
10
20
00
82
82
82
82
82
82
82
C6
7C
ENDCHAR
STARTCHAR Ucircumflex
ENCODING 219
SWIDTH 731 0
DWIDTH 9 0
BBX 7 12 1 0
BITMAP
30
48
00
82
82
82
82
82
82
82
C6
7C
ENDCHAR
STARTCHAR Udieresis
ENCODING 220
SWIDTH 731 0
DWIDTH 9 0
BBX 7 11 1 0
BITMAP
50
00
82
82
82
82
82
82
82
C6
7C
ENDCHAR
STARTCHAR Yacute
ENCODING 221
SWIDTH 610 0
DWIDTH 7 0
BBX 7 12 0 0
BITMAP
08
10
00
82
44
44
28
28
10
10
10
10
ENDCHAR
STARTCHAR Thorn
ENCODING 222
SWIDTH 604 0
DWIDTH 8 0
BBX 6 9 1 0
BITMAP
80
F8
84
84
84
F8
80
80
80
ENDCHAR
STARTCHAR germandbls
ENCODING 223
SWIDTH 629 0
DWIDTH 8 0
BBX 6 10 1 0
BITMAP
70
88
88
B0
A0
B0
88
84
84
B8
ENDCHAR
STARTCHAR agrave
ENCODING 224
SWIDTH 612 0
DWIDTH 8 0
BBX 6 10 1 0
BITMAP
40
20
00
78
84
04
7C
84
8C
74
ENDCHAR
STARTCHAR aacute
ENCODING 225
SWIDTH 612 0
DWIDTH 8 0
BBX 6 10 1 0
BITMAP
20
40
00
78
84
04
7C
84
8C
74
ENDCHAR
STARTCHAR acircumflex
ENCODING 226
SWIDTH 612 0
DWIDTH 8 0
BBX 6 10 1 0
BITMAP
60
90
00
78
84
04
7C
84
8C
74
ENDCHAR
STARTCHAR atilde
ENCODING 227
SWIDTH 612 0
DWIDTH 8 0
BBX 6 10 1 0
BITMAP
E8
B8
00
78
84
04
7C
84
8C
74
ENDCHAR
STARTCHAR adieresis
ENCODING 228
SWIDTH 612 0
DWIDTH 8 0
BBX 6 9 1 0
BITMAP
50
00
78
84
04
7C
84
8C
74
ENDCHAR
STARTCHAR aring
ENCODING 229
SWIDTH 612 0
DWIDTH 8 0
BBX 6 12 1 0
BITMAP
30
48
48
30
00
78
84
04
7C
84
8C
74
ENDCHAR
STARTCHAR ae
ENCODING 230
SWIDTH 981 0
DWIDTH 12 0
BBX 10 7 1 0
BITMAP
7780
8CC0
0840
7FC0
8800
9C40
7780
ENDCHAR
STARTCHAR ccedilla
ENCODING 231
SWIDTH 549 0
DWIDTH 7 0
BBX 5 9 1 -2
BITMAP
70
C8
80
80
80
C8
70
10
30
ENDCHAR
STARTCHAR egrave
ENCODING 232
SWIDTH 615 0
DWIDTH 8 0
BBX 6 10 1 0
BITMAP
20
10
00
78
CC
84
FC
80
C4
78
ENDCHAR
STARTCHAR eacute
ENCODING 233
SWIDTH 615 0
DWIDTH 8 0
BBX 6 10 1 0
BITMAP
10
20
00
78
CC
84
FC
80
C4
78
ENDCHAR
STARTCHAR ecircumflex
ENCODING 234
SWIDTH 615 0
DWIDTH 8 0
BBX 6 10 1 0
BITMAP
30
48
00
78
CC
84
FC
80
C4
78
ENDCHAR
STARTCHAR edieresis
ENCODING 235
SWIDTH 615 0
DWIDTH 8 0
BBX 6 9 1 0
BITMAP
28
00
78
CC
84
FC
80
C4
78
ENDCHAR
STARTCHAR igrave
ENCODING 236
SWIDTH 277 0
DWIDTH 3 0
BBX 2 10 1 0
BITMAP
80
40
00
80
80
80
80
80
80
80
ENDCHAR
STARTCHAR iacute
ENCODING 237
SWIDTH 277 0
DWIDTH 3 0
BBX 2 10 1 0
BITMAP
40
80
00
80
80
80
80
80
80
80
ENDCHAR
STARTCHAR icircumflex
ENCODING 238
SWIDTH 277 0
DWIDTH 3 0
BBX 4 10 0 0
BITMAP
60
90
00
40
40
40
40
40
40
40
ENDCHAR
STARTCHAR idieresis
ENCODING 239
SWIDTH 277 0
DWIDTH 3 0
BBX 3 9 1 0
BITMAP
A0
00
80
80
80
80
80
80
80
ENDCHAR
STARTCHAR eth
ENCODING 240
SWIDTH 611 0
DWIDTH 8 0
BBX 6 9 1 0
BITMAP
48
70
10
78
C4
84
84
CC
78
ENDCHAR
STARTCHAR ntilde
ENCODING 241
SWIDTH 633 0
DWIDTH 8 0
BBX 6 10 1 0
BITMAP
74
5C
00
B8
C4
84
84
84
84
84
ENDCHAR
STARTCHAR ograve
ENCODING 242
SWIDTH 611 0
DWIDTH 8 0
BBX 6 10 1 0
BITMAP
20
10
00
78
CC
84
84
84
CC
78
ENDCHAR
STARTCHAR oacute
ENCODING 243
SWIDTH 611 0
DWIDTH 8 0
BBX 6 10 1 0
BITMAP
10
20
00
78
CC
84
84
84
CC
78
ENDCHAR
STARTCHAR ocircumflex
ENCODING 244
SWIDTH 611 0
DWIDTH 8 0
BBX 6 10 1 0
BITMAP
30
48
00
78
CC
84
84
84
CC
78
ENDCHAR
STARTCHAR otilde
ENCODING 245
SWIDTH 611 0
DWIDTH 8 0
BBX 6 10 1 0
BITMAP
74
5C
00
78
CC
84
84
84
CC
78
ENDCHAR
STARTCHAR odieresis
ENCODING 246
SWIDTH 611 0
DWIDTH 8 0
BBX 6 9 1 0
BITMAP
28
00
78
CC
84
84
84
CC
78
ENDCHAR
STARTCHAR divide
ENCODING 247
SWIDTH 837 0
DWIDTH 10 0
BBX 7 5 1 1
BITMAP
10
00
FE
00
10
ENDCHAR
STARTCHAR oslash
ENCODING 248
SWIDTH 611 0
DWIDTH 8 0
BBX 6 7 1 0
BITMAP
7C
CC
94
A4
A4
CC
F8
ENDCHAR
STARTCHAR ugrave
ENCODING 249
SWIDTH 633 0
DWIDTH 8 0
BBX 6 10 1 0
BITMAP
20
10
00
84
84
84
84
84
8C
74
ENDCHAR
STARTCHAR uacute
ENCODING 250
SWIDTH 633 0
DWIDTH 8 0
BBX 6 10 1 0
BITMAP
10
20
00
84
84
84
84
84
8C
74
ENDCHAR
STARTCHAR ucircumflex
ENCODING 251
SWIDTH 633 0
DWIDTH 8 0
BBX 6 10 1 0
BITMAP
30
48
00
84
84
84
84
84
8C
74
ENDCHAR
STARTCHAR udieresis
ENCODING 252
SWIDTH 633 0
DWIDTH 8 0
BBX 6 9 1 0
BITMAP
28
00
84
84
84
84
84
8C
74
ENDCHAR
STARTCHAR yacute
ENCODING 253
SWIDTH 591 0
DWIDTH 6 0
BBX 6 13 0 -3
BITMAP
08
10
00
84
84
48
48
28
30
10
10
20
C0
ENDCHAR
STARTCHAR thorn
ENCODING 254
SWIDTH 634 0
DWIDTH 8 0
BBX 6 13 1 -3
BITMAP
80
80
80
F8
CC
84
84
84
CC
F8
80
80
80
ENDCHAR
STARTCHAR ydieresis
ENCODING 255
SWIDTH 591 0
DWIDTH 6 0
BBX 6 12 0 -3
BITMAP
14
00
84
84
48
48
28
30
10
10
20
C0
ENDCHAR
STARTCHAR .notdef
ENCODING -1
SWIDTH 600 0
DWIDTH 7 0
BBX 6 11 1 -3
BITMAP
FC
84
84
84
84
84
84
84
84
84
FC
ENDCHAR
STARTCHAR .null
ENCODING -1
SWIDTH 0 0
DWIDTH 0 0
BBX 1 1 0 0
BITMAP
00
ENDCHAR
STARTCHAR nonmarkingreturn
ENCODING -1
SWIDTH 317 0
DWIDTH 4 0
BBX 1 1 0 0
BITMAP
00
ENDCHAR
STARTCHAR dagger
ENCODING -1
SWIDTH 500 0
DWIDTH 6 0
BBX 5 10 0 -1
BITMAP
20
20
F8
20
20
20
20
20
20
20
ENDCHAR
STARTCHAR bullet
ENCODING -1
SWIDTH 589 0
DWIDTH 7 0
BBX 3 3 2 3
BITMAP
E0
E0
E0
ENDCHAR
STARTCHAR trademark
ENCODING -1
SWIDTH 1000 0
DWIDTH 12 0
BBX 8 3 2 6
BITMAP
E9
4F
49
ENDCHAR
STARTCHAR notequal
ENCODING -1
SWIDTH 837 0
DWIDTH 10 0
BBX 8 7 1 0
BITMAP
02
06
FF
18
FF
60
40
ENDCHAR
STARTCHAR infinity
ENCODING -1
SWIDTH 833 0
DWIDTH 10 0
BBX 7 5 1 1
BITMAP
6C
92
92
B2
6C
ENDCHAR
STARTCHAR lessequal
ENCODING -1
SWIDTH 837 0
DWIDTH 10 0
BBX 8 7 1 0
BITMAP
03
3C
C0
3C
03
00
FF
ENDCHAR
STARTCHAR greaterequal
ENCODING -1
SWIDTH 837 0
DWIDTH 10 0
BBX 8 7 1 0
BITMAP
C0
3C
03
3C
C0
00
FF
ENDCHAR
STARTCHAR partialdiff
ENCODING -1
SWIDTH 517 0
DWIDTH 6 0
BBX 5 8 0 0
BITMAP
70
48
08
78
C8
88
90
60
ENDCHAR
STARTCHAR summation
ENCODING -1
SWIDTH 673 0
DWIDTH 8 0
BBX 8 11 0 -2
BITMAP
FF
40
20
30
18
0C
18
10
20
40
FF
ENDCHAR
STARTCHAR product
ENCODING -1
SWIDTH 756 0
DWIDTH 9 0
BBX 7 11 1 -2
BITMAP
FE
82
82
82
82
82
82
82
82
82
82
ENDCHAR
STARTCHAR pi
ENCODING -1
SWIDTH 588 0
DWIDTH 7 0
BBX 7 6 0 0
BITMAP
FE
A4
48
48
48
4C
ENDCHAR
STARTCHAR integral
ENCODING -1
SWIDTH 520 0
DWIDTH 6 0
BBX 5 11 1 -2
BITMAP
18
20
20
20
20
20
20
20
20
20
C0
ENDCHAR
STARTCHAR Omega
ENCODING -1
SWIDTH 764 0
DWIDTH 9 0
BBX 8 9 1 0
BITMAP
3C
42
81
81
81
81
C3
42
E7
ENDCHAR
STARTCHAR radical
ENCODING -1
SWIDTH 637 0
DWIDTH 8 0
BBX 7 10 0 0
BITMAP
02
04
04
08
48
C8
50
30
30
20
ENDCHAR
STARTCHAR florin
ENCODING -1
SWIDTH 636 0
DWIDTH 8 0
BBX 7 13 1 -3
BITMAP
06
08
08
10
10
38
10
10
10
10
20
20
E0
ENDCHAR
STARTCHAR approxequal
ENCODING -1
SWIDTH 837 0
DWIDTH 10 0
BBX 8 4 1 2
BITMAP
71
8E
71
8E
ENDCHAR
STARTCHAR Delta
ENCODING -1
SWIDTH 668 0
DWIDTH 8 0
BBX 8 9 0 0
BITMAP
18
18
3C
24
24
42
42
42
FF
ENDCHAR
STARTCHAR ellipsis
ENCODING -1
SWIDTH 1000 0
DWIDTH 12 0
BBX 9 2 1 0
BITMAP
8880
8880
ENDCHAR
STARTCHAR OE
ENCODING -1
SWIDTH 1069 0
DWIDTH 13 0
BBX 11 9 1 0
BITMAP
3FE0
4400
8400
8400
87E0
8400
8400
4400
3FE0
ENDCHAR
STARTCHAR oe
ENCODING -1
SWIDTH 1022 0
DWIDTH 13 0
BBX 11 7 1 0
BITMAP
7BC0
CE60
8420
87E0
8400
CE20
7BC0
ENDCHAR
STARTCHAR endash
ENCODING -1
SWIDTH 500 0
DWIDTH 6 0
BBX 6 1 0 3
BITMAP
FC
ENDCHAR
STARTCHAR emdash
ENCODING -1
SWIDTH 1000 0
DWIDTH 12 0
BBX 12 1 0 3
BITMAP
FFF0
ENDCHAR
STARTCHAR quotedblleft
ENCODING -1
SWIDTH 518 0
DWIDTH 6 0
BBX 3 3 1 6
BITMAP
A0
A0
A0
ENDCHAR
STARTCHAR quotedblright
ENCODING -1
SWIDTH 518 0
DWIDTH 6 0
BBX 3 3 2 6
BITMAP
A0
A0
A0
ENDCHAR
STARTCHAR quoteleft
ENCODING -1
SWIDTH 317 0
DWIDTH 4 0
BBX 1 3 1 6
BITMAP
80
80
80
ENDCHAR
STARTCHAR quoteright
ENCODING -1
SWIDTH 317 0
DWIDTH 4 0
BBX 1 3 2 6
BITMAP
80
80
80
ENDCHAR
STARTCHAR lozenge
ENCODING -1
SWIDTH 494 0
DWIDTH 6 0
BBX 6 11 0 -2
BITMAP
20
30
50
48
88
84
84
48
48
30
30
ENDCHAR
STARTCHAR Ydieresis
ENCODING -1
SWIDTH 610 0
DWIDTH 7 0
BBX 7 11 0 0
BITMAP
28
00
82
44
44
28
28
10
10
10
10
ENDCHAR
STARTCHAR fraction
ENCODING -1
SWIDTH 166 0
DWIDTH 2 0
BBX 6 9 -2 0
BITMAP
04
08
08
10
30
20
40
40
80
ENDCHAR
STARTCHAR guilsinglleft
ENCODING -1
SWIDTH 399 0
DWIDTH 5 0
BBX 3 5 1 1
BITMAP
20
60
80
60
20
ENDCHAR
STARTCHAR guilsinglright
ENCODING -1
SWIDTH 399 0
DWIDTH 5 0
BBX 3 5 1 1
BITMAP
80
C0
20
C0
80
ENDCHAR
STARTCHAR fi
ENCODING -1
SWIDTH 629 0
DWIDTH 7 0
BBX 6 10 0 0
BITMAP
30
44
40
FC
44
44
44
44
44
44
ENDCHAR
STARTCHAR fl
ENCODING -1
SWIDTH 629 0
DWIDTH 7 0
BBX 6 10 0 0
BITMAP
3C
44
44
F4
44
44
44
44
44
44
ENDCHAR
STARTCHAR daggerdbl
ENCODING -1
SWIDTH 500 0
DWIDTH 6 0
BBX 5 10 0 -1
BITMAP
20
20
F8
20
20
20
20
F8
20
20
ENDCHAR
STARTCHAR quotesinglbase
ENCODING -1
SWIDTH 317 0
DWIDTH 4 0
BBX 1 3 2 -1
BITMAP
80
80
80
ENDCHAR
STARTCHAR quotedblbase
ENCODING -1
SWIDTH 518 0
DWIDTH 6 0
BBX 3 3 2 -1
BITMAP
A0
A0
A0
ENDCHAR
STARTCHAR perthousand
ENCODING -1
SWIDTH 1341 0
DWIDTH 16 0
BBX 15 9 0 0
BITMAP
6100
9200
9200
9400
6D8C
0A52
1252
1252
218C
ENDCHAR
STARTCHAR dotlessi
ENCODING -1
SWIDTH 277 0
DWIDTH 3 0
BBX 1 7 1 0
BITMAP
80
80
80
80
80
80
80
ENDCHAR
STARTCHAR circumflex
ENCODING -1
SWIDTH 500 0
DWIDTH 6 0
BBX 4 2 1 8
BITMAP
60
90
ENDCHAR
STARTCHAR tilde
ENCODING -1
SWIDTH 500 0
DWIDTH 6 0
BBX 5 2 1 8
BITMAP
E8
B8
ENDCHAR
STARTCHAR breve
ENCODING -1
SWIDTH 500 0
DWIDTH 6 0
BBX 4 2 1 8
BITMAP
90
60
ENDCHAR
STARTCHAR dotaccent
ENCODING -1
SWIDTH 500 0
DWIDTH 6 0
BBX 1 1 2 8
BITMAP
80
ENDCHAR
STARTCHAR ring
ENCODING -1
SWIDTH 500 0
DWIDTH 6 0
BBX 4 4 2 8
BITMAP
60
90
90
60
ENDCHAR
STARTCHAR hungarumlaut
ENCODING -1
SWIDTH 500 0
DWIDTH 6 0
BBX 4 2 1 8
BITMAP
50
A0
ENDCHAR
STARTCHAR ogonek
ENCODING -1
SWIDTH 500 0
DWIDTH 6 0
BBX 2 2 2 -2
BITMAP
80
C0
ENDCHAR
STARTCHAR caron
ENCODING -1
SWIDTH 500 0
DWIDTH 6 0
BBX 4 2 1 8
BITMAP
90
60
ENDCHAR
STARTCHAR Lslash
ENCODING -1
SWIDTH 562 0
DWIDTH 6 0
BBX 6 9 0 0
BITMAP
40
40
50
60
40
C0
40
40
7C
ENDCHAR
STARTCHAR lslash
ENCODING -1
SWIDTH 284 0
DWIDTH 3 0
BBX 3 10 0 0
BITMAP
40
40
40
60
40
C0
40
40
40
40
ENDCHAR
STARTCHAR Scaron
ENCODING -1
SWIDTH 634 0
DWIDTH 8 0
BBX 6 12 1 0
BITMAP
48
30
00
78
84
80
80
78
04
04
84
78
ENDCHAR
STARTCHAR scaron
ENCODING -1
SWIDTH 520 0
DWIDTH 7 0
BBX 5 10 1 0
BITMAP
90
60
00
70
88
80
70
08
88
70
ENDCHAR
STARTCHAR Zcaron
ENCODING -1
SWIDTH 685 0
DWIDTH 9 0
BBX 7 12 1 0
BITMAP
48
30
00
FE
02
04
08
10
20
40
80
FE
ENDCHAR
STARTCHAR zcaron
ENCODING -1
SWIDTH 524 0
DWIDTH 5 0
BBX 5 10 0 0
BITMAP
48
30
00
F8
08
10
20
40
80
F8
ENDCHAR
STARTCHAR minus
ENCODING -1
SWIDTH 837 0
DWIDTH 10 0
BBX 8 1 1 3
BITMAP
FF
ENDCHAR
STARTCHAR Gbreve
ENCODING -1
SWIDTH 774 0
DWIDTH 9 0
BBX 7 12 1 0
BITMAP
24
18
00
3C
42
80
80
8E
82
82
42
3C
ENDCHAR
STARTCHAR gbreve
ENCODING -1
SWIDTH 634 0
DWIDTH 8 0
BBX 6 13 1 -3
BITMAP
48
30
00
7C
CC
84
84
84
CC
7C
04
4C
38
ENDCHAR
STARTCHAR Idotaccent
ENCODING -1
SWIDTH 294 0
DWIDTH 3 0
BBX 1 10 1 0
BITMAP
80
80
80
80
80
80
80
80
80
80
ENDCHAR
STARTCHAR Scedilla
ENCODING -1
SWIDTH 634 0
DWIDTH 8 0
BBX 6 11 1 -2
BITMAP
78
84
80
80
78
04
04
84
78
10
30
ENDCHAR
STARTCHAR scedilla
ENCODING -1
SWIDTH 520 0
DWIDTH 7 0
BBX 5 9 1 -2
BITMAP
70
88
80
70
08
88
70
20
60
ENDCHAR
STARTCHAR Cacute
ENCODING -1
SWIDTH 698 0
DWIDTH 8 0
BBX 6 12 1 0
BITMAP
08
10
00
38
44
80
80
80
80
80
44
38
ENDCHAR
STARTCHAR cacute
ENCODING -1
SWIDTH 549 0
DWIDTH 7 0
BBX 5 10 1 0
BITMAP
10
20
00
70
C8
80
80
80
C8
70
ENDCHAR
STARTCHAR Ccaron
ENCODING -1
SWIDTH 698 0
DWIDTH 8 0
BBX 6 12 1 0
BITMAP
24
18
00
38
44
80
80
80
80
80
44
38
ENDCHAR
STARTCHAR ccaron
ENCODING -1
SWIDTH 549 0
DWIDTH 7 0
BBX 5 10 1 0
BITMAP
48
30
00
70
C8
80
80
80
C8
70
ENDCHAR
STARTCHAR dcroat
ENCODING -1
SWIDTH 634 0
DWIDTH 8 0
BBX 7 10 1 0
BITMAP
04
1E
04
7C
CC
84
84
84
CC
7C
ENDCHAR
STARTCHAR periodcentered
ENCODING -1
SWIDTH 317 0
DWIDTH 4 0
BBX 1 2 1 3
BITMAP
80
80
ENDCHAR
STARTCHAR Euro
ENCODING -1
SWIDTH 636 0
DWIDTH 8 0
BBX 7 9 1 0
BITMAP
1C
22
40
FC
40
F8
40
22
1C
ENDCHAR
STARTCHAR c6459
ENCODING -1
SWIDTH 500 0
DWIDTH 6 0
BBX 3 1 1 8
BITMAP
A0
ENDCHAR
STARTCHAR c6460
ENCODING -1
SWIDTH 500 0
DWIDTH 6 0
BBX 2 2 2 8
BITMAP
40
80
ENDCHAR
STARTCHAR c6461
ENCODING -1
SWIDTH 500 0
DWIDTH 6 0
BBX 4 2 1 8
BITMAP
D0
B0
ENDCHAR
STARTCHAR c6462
ENCODING -1
SWIDTH 500 0
DWIDTH 6 0
BBX 2 2 2 8
BITMAP
80
40
ENDCHAR
STARTCHAR c6463
ENCODING -1
SWIDTH 500 0
DWIDTH 6 0
BBX 4 2 1 8
BITMAP
60
90
ENDCHAR
STARTCHAR c6466
ENCODING -1
SWIDTH 500 0
DWIDTH 6 0
BBX 4 2 1 8
BITMAP
90
60
ENDCHAR
STARTCHAR c6467
ENCODING -1
SWIDTH 400 0
DWIDTH 5 0
BBX 4 5 1 4
BITMAP
20
60
A0
F0
20
ENDCHAR
STARTCHAR c6468
ENCODING -1
SWIDTH 500 0
DWIDTH 6 0
BBX 4 2 1 8
BITMAP
90
60
ENDCHAR
STARTCHAR c6469
ENCODING -1
SWIDTH 500 0
DWIDTH 6 0
BBX 1 1 2 7
BITMAP
80
ENDCHAR
ENDFONT
